<svg id="Layer_1" data-name="Layer 1" xmlns="http://www.w3.org/2000/svg" viewBox="0 0 65 85"><path d="M63.25,40.63c3.66-8.32-.76-14.23-7.75-19.08l6-11L55.74,7.35,49.92,18.09c-1.51-.83-3.07-1.65-4.62-2.46L51.16,4.81,45.43,1.64l-6,11c-1.25-.65-2.49-1.3-3.68-2l0,0L27.87,6.3,24,13.48s4.29,2.24,4.17,2.3a3.59,3.59,0,0,1,1.7,4.76L23,33.11a4.91,4.91,0,0,1,.59.39L23,33.16,13.46,50.77a2.48,2.48,0,0,1-3.37,1c0,.12-4.17-2.3-4.17-2.3L.43,56.89,7.9,61l2.49,1.4h0l1.59.9L5.93,74.49l5.73,3.16,6-11c1.55.91,3.06,1.77,4.55,2.59l-6,11L22,83.36,28,72.22c10,4.68,18.29,5.57,24.88-4.57,5.3-8.17,3.94-13.87-.7-18.44,4.4-.15,8.38-2.49,11-8.58ZM44,59.92C39.7,67.8,29.12,61.78,24.28,59h0l-1.15-.65,8.35-15.22c.4.22.9.48,1.47.77,5.08,2.6,15.48,7.94,11.07,16Zm-9.55-21c4,2.3,12.76,7.32,16.67.19,4-7.29-4.65-11.69-8.88-13.84-.47-.24-.89-.45-1.23-.64L33.49,38.35Z" fill="#fff" fill-rule="evenodd"/></svg>