<?xml version="1.0" encoding="UTF-8" standalone="no"?>
<!DOCTYPE svg PUBLIC "-//W3C//DTD SVG 1.1//EN" "http://www.w3.org/Graphics/SVG/1.1/DTD/svg11.dtd">

<!-- Created with Vectornator (http://vectornator.io/) -->
<svg height="100%" stroke-miterlimit="10" style="fill-rule:nonzero;clip-rule:evenodd;stroke-linecap:round;stroke-linejoin:round;" version="1.1" viewBox="0 0 375 225" width="100%" xml:space="preserve" xmlns="http://www.w3.org/2000/svg" xmlns:vectornator="http://vectornator.io" xmlns:xlink="http://www.w3.org/1999/xlink">
<metadata>
<vectornator:setting key="IsTimeLapseWatermarkDisabled" value="false"/>
<vectornator:setting key="UndoHistoryDisabled" value="true"/>
<vectornator:setting key="VNDimensionsVisible" value="true"/>
<vectornator:setting key="VNSnapToGuides" value="true"/>
<vectornator:setting key="WDCMYKEnabledKey" value="false"/>
<vectornator:setting key="WDDisplayWhiteBackground" value="false"/>
<vectornator:setting key="WDDynamicGuides" value="false"/>
<vectornator:setting key="WDGuidesVisible" value="true"/>
<vectornator:setting key="WDIsolateActiveLayer" value="false"/>
<vectornator:setting key="WDOutlineMode" value="false"/>
<vectornator:setting key="WDRulersVisible" value="true"/>
<vectornator:setting key="WDSnapToEdges" value="false"/>
<vectornator:setting key="WDSnapToGrid" value="false"/>
<vectornator:setting key="WDSnapToPoints" value="false"/>
<vectornator:setting key="WDUnits" value="Points"/>
</metadata>
<defs/>
<clipPath id="ArtboardFrame">
<rect height="225" width="375" x="0" y="0"/>
</clipPath>
<g clip-path="url(#ArtboardFrame)" id="Untitled" vectornator:layerName="Untitled">
<g opacity="1">
<path d="M456.314 389.673C457.613 390.971 459.72 390.972 460.999 389.655C492.188 357.541 512.937 316.721 520.474 272.556C528.198 227.298 521.667 180.76 501.782 139.371C481.898 97.9826 449.643 63.7853 409.471 41.5035C369.3 19.2219 323.196 9.95548 277.528 14.9845C231.859 20.0135 188.881 39.0896 154.529 69.5778C120.177 100.066 96.1481 140.461 85.7604 185.184C75.3727 229.906 79.1393 276.748 96.5401 319.24C113.521 360.705 142.668 396.03 180.107 420.588C181.642 421.594 183.697 421.134 184.682 419.585L184.682 419.585C185.668 418.035 185.207 415.98 183.671 414.972C147.397 391.154 119.157 356.911 102.699 316.721C85.8199 275.505 82.1662 230.068 92.2423 186.687C102.318 143.306 125.627 104.123 158.948 74.5493C192.269 44.9758 233.958 26.4719 278.257 21.5938C322.555 16.7157 367.276 25.7041 406.242 47.3173C445.208 68.9306 476.496 102.102 495.784 142.249C515.071 182.396 521.407 227.538 513.915 271.438C506.609 314.244 486.509 353.81 456.296 384.95C455.016 386.269 455.014 388.374 456.314 389.673L456.314 389.673Z" fill="#ffffff" fill-rule="evenodd" opacity="1" stroke="none"/>
<path d="M462.089 383.002C463.279 384.195 465.214 384.195 466.386 382.985C500.711 347.518 521.001 300.695 523.393 251.263C525.834 200.812 509.456 151.257 477.45 112.251C445.444 73.2456 400.102 47.5834 350.258 40.2639C300.414 32.9444 249.637 44.492 207.82 72.657C166.002 100.822 136.14 143.587 124.049 192.621C111.959 241.655 118.506 293.446 142.417 337.904C166.327 382.362 205.888 416.304 253.391 433.116C299.938 449.589 350.844 448.46 396.572 430.008C398.131 429.379 398.86 427.593 398.21 426.042L398.21 426.042C397.559 424.487 395.769 423.759 394.206 424.389C349.874 442.25 300.534 443.332 255.416 427.365C209.337 411.057 170.964 378.134 147.771 335.009C124.578 291.885 118.226 241.648 129.954 194.085C141.682 146.522 170.648 105.04 211.211 77.7197C251.774 50.3996 301.028 39.1985 349.377 46.2984C397.725 53.3982 441.707 78.2906 472.753 116.126C503.798 153.962 519.685 202.03 517.317 250.968C514.998 298.891 495.337 344.287 462.073 378.683C460.906 379.89 460.904 381.813 462.089 383.002L462.089 383.002Z" fill="#ffffff" fill-rule="evenodd" opacity="1" stroke="none"/>
<path d="M465.919 373.49C467.031 374.598 468.832 374.599 469.927 373.474C497.186 345.469 515.133 309.738 521.278 271.148C527.572 231.624 521.163 191.128 502.97 155.457C484.776 119.785 455.731 90.768 419.991 72.5584C384.252 54.3488 343.651 47.8806 304 54.0799C264.349 60.2791 227.682 78.8279 199.247 107.071C170.813 135.314 152.069 171.803 145.698 211.315C139.328 250.827 145.658 291.335 163.782 327.042C181.478 361.905 209.532 390.444 244.081 408.787C245.467 409.523 247.181 408.97 247.899 407.575L247.899 407.575C248.62 406.176 248.066 404.458 246.675 403.719C213.203 385.925 186.022 358.261 168.872 324.473C151.292 289.838 145.152 250.544 151.331 212.218C157.51 173.891 175.692 138.497 203.274 111.101C230.855 83.7055 266.422 65.7131 304.884 59.6998C343.345 53.6866 382.728 59.9607 417.395 77.624C452.063 95.2874 480.237 123.434 497.884 158.035C515.532 192.637 521.748 231.918 515.643 270.256C509.688 307.655 492.306 342.285 465.904 369.44C464.805 370.57 464.803 372.377 465.919 373.49L465.919 373.49Z" fill="#ffffff" fill-rule="evenodd" opacity="1" stroke="none"/>
<path d="M496.055 339.965C497.361 340.518 498.869 339.906 499.401 338.591C512.737 305.63 515.494 269.306 507.252 234.672C498.812 199.203 479.278 167.358 451.495 143.775C423.713 120.192 389.134 106.103 352.794 103.56C317.309 101.077 281.955 109.73 251.642 128.281C250.433 129.021 250.076 130.609 250.833 131.808L250.833 131.808C251.59 133.007 253.176 133.362 254.386 132.622C283.774 114.656 318.041 106.276 352.436 108.683C387.686 111.15 421.228 124.816 448.176 147.691C475.125 170.567 494.073 201.457 502.26 235.861C510.249 269.433 507.585 304.641 494.673 336.595C494.142 337.909 494.75 339.414 496.055 339.965L496.055 339.965Z" fill="#ffffff" fill-rule="evenodd" opacity="1" stroke="none"/>
<path d="M230.69 146.767C229.763 145.694 228.14 145.575 227.082 146.519C215.104 157.2 204.688 169.515 196.139 183.101C195.384 184.301 195.769 185.881 196.978 186.618L196.978 186.618C198.189 187.356 199.767 186.971 200.523 185.77C208.795 172.64 218.865 160.735 230.439 150.404C231.497 149.459 231.617 147.84 230.69 146.767L230.69 146.767Z" fill="#ffffff" fill-rule="evenodd" opacity="1" stroke="none"/>
<path d="M457.26 390.33C458.564 391.833 460.841 391.995 462.322 390.668C490.796 365.155 512.782 333.189 526.427 297.422C540.5 260.533 545.267 220.739 540.305 181.565C535.342 142.391 520.804 105.047 497.978 72.8403C475.152 40.6334 444.742 14.5582 409.442-3.07592C374.142-20.7099 335.043-29.3584 295.606-28.2552C256.169-27.1521 217.613-16.3313 183.352 3.24848C149.092 22.8283 120.184 50.5629 99.1911 83.9955C78.8359 116.412 66.5299 153.214 63.2767 191.328C63.1077 193.308 64.6051 195.03 66.588 195.169L66.588 195.169C68.5702 195.309 70.2868 193.815 70.4567 191.835C73.626 154.903 85.5589 119.242 105.285 87.8286C125.648 55.399 153.688 28.4965 186.921 9.50408C220.154-9.48842 257.553-19.9845 295.807-21.0546C334.06-22.1246 371.987-13.7356 406.228 3.36938C440.469 20.4744 469.966 45.7675 492.108 77.0081C514.249 108.249 528.351 144.473 533.165 182.471C537.978 220.47 533.355 259.07 519.703 294.853C506.48 329.514 485.181 360.496 457.598 385.233C456.119 386.559 455.958 388.829 457.26 390.33L457.26 390.33Z" fill="#ffffff" fill-rule="evenodd" opacity="1" stroke="none"/>
<path d="M464.006 384.247C465.236 385.26 467.057 385.083 468.05 383.836C484.473 363.223 496.493 339.442 503.355 313.966C510.466 287.561 511.871 259.941 507.476 232.948C503.081 205.956 492.986 180.212 477.866 157.433C462.745 134.654 442.946 115.363 419.788 100.848C396.631 86.3322 370.647 76.9251 343.57 73.254C316.494 69.5829 288.946 71.732 262.765 79.5582C236.584 87.3843 212.37 100.708 191.74 118.639C171.835 135.941 155.706 157.148 144.347 180.937C143.661 182.375 144.296 184.088 145.742 184.753L145.742 184.753C147.19 185.419 148.901 184.783 149.589 183.345C160.605 160.302 176.235 139.759 195.521 122.997C215.532 105.603 239.019 92.6797 264.415 85.0883C289.811 77.4969 316.532 75.4122 342.796 78.9732C369.061 82.5342 394.265 91.659 416.728 105.739C439.19 119.819 458.396 138.531 473.063 160.627C487.73 182.723 497.522 207.694 501.785 233.877C506.048 260.059 504.685 286.851 497.787 312.464C491.139 337.149 479.497 360.193 463.594 380.173C462.601 381.419 462.776 383.235 464.006 384.247L464.006 384.247Z" fill="#ffffff" fill-rule="evenodd" opacity="1" stroke="none"/>
</g>
<g opacity="1">
<path d="M251.156 178.943C249.957 178.156 248.345 178.488 247.574 179.697C228.752 209.204 219.304 243.722 220.505 278.711C221.737 314.565 234.091 349.144 255.861 377.672C277.631 406.199 307.743 427.267 342.037 437.966C376.331 448.664 413.114 448.465 447.305 437.395C481.496 426.325 511.408 404.932 532.909 376.17C554.41 347.407 566.438 312.696 567.332 276.831C568.225 240.965 557.941 205.716 537.899 175.952C518.34 146.906 490.431 124.483 457.869 111.612C456.536 111.084 455.036 111.761 454.527 113.101L454.527 113.101C454.016 114.445 454.694 115.946 456.03 116.475C487.581 128.965 514.623 150.702 533.579 178.853C553.02 207.724 562.996 241.916 562.128 276.705C561.261 311.495 549.594 345.165 528.739 373.064C507.883 400.963 478.868 421.715 445.703 432.453C412.537 443.19 376.857 443.384 343.593 433.006C310.328 422.629 281.119 402.193 260.002 374.521C238.885 346.849 226.902 313.307 225.707 278.529C224.542 244.619 233.691 211.165 251.916 182.559C252.689 181.346 252.358 179.732 251.156 178.943L251.156 178.943Z" fill="#f7f9fc" fill-rule="evenodd" opacity="1" stroke="none"/>
<path d="M247.785 184.962C246.686 184.237 245.206 184.542 244.5 185.653C223.806 218.222 215.657 257.261 221.633 295.466C227.731 334.459 248.105 369.79 278.785 394.577C309.465 419.364 348.254 431.832 387.595 429.551C426.936 427.27 464.011 410.405 491.598 382.24C519.184 354.075 535.307 316.628 536.824 277.194C538.342 237.76 525.145 199.164 499.806 168.924C474.466 138.685 438.799 118.968 399.752 113.614C361.491 108.369 322.671 117.282 290.555 138.633C289.46 139.36 289.184 140.844 289.927 141.928L289.927 141.928C290.671 143.014 292.155 143.289 293.252 142.56C324.392 121.881 362.022 113.251 399.109 118.335C436.985 123.528 471.582 142.653 496.162 171.986C520.741 201.318 533.541 238.757 532.07 277.008C530.598 315.259 514.959 351.582 488.2 378.902C461.441 406.222 425.478 422.582 387.317 424.794C349.156 427.006 311.531 414.913 281.772 390.869C252.012 366.826 232.249 332.554 226.334 294.732C220.541 257.694 228.432 219.848 248.48 188.267C249.184 187.159 248.882 185.684 247.785 184.962L247.785 184.962Z" fill="#f7f9fc" fill-rule="evenodd" opacity="1" stroke="none"/>
<path d="M246.354 192.846C245.328 192.174 243.95 192.458 243.289 193.491C226.829 219.232 218.724 249.413 220.112 279.915C221.533 311.155 232.839 341.131 252.411 365.55C271.982 389.97 298.817 407.582 329.072 415.865C359.328 424.148 391.453 422.678 420.85 411.664C450.246 400.651 475.407 380.659 492.729 354.55C510.051 328.441 518.647 297.555 517.287 266.312C515.926 235.07 504.679 205.072 485.154 180.615C466.09 156.734 440.089 139.33 410.724 130.758C409.547 130.415 408.324 131.108 407.994 132.288L407.994 132.288C407.663 133.474 408.359 134.702 409.54 135.047C437.993 143.37 463.185 160.242 481.66 183.386C500.599 207.109 511.509 236.207 512.829 266.512C514.149 296.818 505.811 326.777 489.008 352.103C472.205 377.428 447.8 396.82 419.285 407.503C390.771 418.187 359.609 419.613 330.261 411.578C300.913 403.544 274.884 386.46 255.899 362.773C236.914 339.086 225.948 310.01 224.569 279.707C223.225 250.148 231.07 220.9 247.006 195.946C247.67 194.907 247.386 193.522 246.354 192.846L246.354 192.846Z" fill="#f7f9fc" fill-rule="evenodd" opacity="1" stroke="none"/>
<path d="M228.563 223.266C227.476 223.05 226.418 223.756 226.219 224.846C221.208 252.178 224.833 280.41 236.618 305.61C248.686 331.417 268.681 352.697 293.689 366.35C318.698 380.004 347.413 385.317 375.654 381.517C403.231 377.805 428.949 365.593 449.241 346.604C450.05 345.847 450.072 344.575 449.302 343.777L449.302 343.777C448.533 342.98 447.264 342.958 446.454 343.715C426.778 362.111 401.849 373.942 375.119 377.539C347.726 381.226 319.871 376.072 295.613 362.828C271.355 349.585 251.96 328.943 240.254 303.911C228.832 279.484 225.312 252.122 230.156 225.629C230.355 224.539 229.65 223.482 228.563 223.266L228.563 223.266Z" fill="#f7f9fc" fill-rule="evenodd" opacity="1" stroke="none"/>
<path d="M236.392 207.477C235.382 207.276 234.398 207.932 234.212 208.945C230.975 226.607 231.599 244.768 236.052 262.177C240.66 280.19 249.247 296.94 261.184 311.195C273.121 325.45 288.103 336.848 305.028 344.55C321.387 351.994 339.159 355.802 357.118 355.721C358.148 355.717 358.967 354.864 358.947 353.834L358.947 353.834C358.927 352.804 358.075 351.986 357.045 351.991C339.644 352.061 322.425 348.367 306.575 341.154C290.157 333.683 275.625 322.627 264.046 308.8C252.467 294.972 244.137 278.725 239.668 261.253C235.353 244.384 234.744 226.788 237.873 209.673C238.058 208.66 237.403 207.678 236.392 207.477L236.392 207.477Z" fill="#f7f9fc" fill-rule="evenodd" opacity="1" stroke="none"/>
<path d="M250.327 178.59C249.092 177.647 247.324 177.883 246.399 179.132C228.616 203.158 216.821 231.096 212.017 260.624C207.062 291.078 209.696 322.283 219.685 351.475C229.674 380.667 246.71 406.945 269.284 427.981C291.858 449.017 319.273 464.162 349.1 472.074C378.928 479.987 410.248 480.422 440.285 473.342C470.323 466.262 498.151 451.885 521.305 431.484C544.458 411.084 562.223 385.289 573.025 356.386C583.498 328.363 587.113 298.255 583.585 268.576C583.402 267.032 581.983 265.951 580.443 266.158L580.443 266.158C578.902 266.364 577.822 267.781 578.005 269.325C581.41 298.086 577.901 327.26 567.751 354.417C557.273 382.453 540.042 407.473 517.583 427.261C495.123 447.05 468.13 460.996 438.994 467.863C409.857 474.731 379.477 474.309 350.545 466.634C321.612 458.959 295.019 444.269 273.122 423.864C251.226 403.459 234.701 377.969 225.012 349.653C215.322 321.337 212.768 291.068 217.574 261.527C222.229 232.913 233.652 205.839 250.874 182.549C251.798 181.299 251.563 179.533 250.327 178.59L250.327 178.59Z" fill="#f7f9fc" fill-rule="evenodd" opacity="1" stroke="none"/>
<path d="M246.121 184.312C245.019 183.732 243.654 184.154 243.091 185.265C233.765 203.636 228.312 223.735 227.079 244.316C225.802 265.647 229.088 287.004 236.718 306.964C244.349 326.925 256.149 345.028 271.33 360.068C286.512 375.109 304.727 386.739 324.76 394.185C344.793 401.631 366.184 404.721 387.507 403.249C408.83 401.777 429.594 395.776 448.415 385.647C467.236 375.519 483.681 361.494 496.653 344.51C509.169 328.124 518.175 309.345 523.119 289.346C523.418 288.137 522.66 286.925 521.447 286.645L521.447 286.645C520.233 286.364 519.024 287.121 518.725 288.329C513.925 307.704 505.195 325.897 493.068 341.774C480.485 358.248 464.534 371.852 446.277 381.676C428.021 391.501 407.88 397.322 387.197 398.75C366.514 400.178 345.764 397.181 326.332 389.958C306.9 382.736 289.231 371.454 274.505 356.865C259.779 342.276 248.333 324.715 240.932 305.354C233.53 285.993 230.343 265.276 231.582 244.585C232.776 224.645 238.055 205.17 247.082 187.366C247.645 186.255 247.224 184.892 246.121 184.312L246.121 184.312Z" fill="#f7f9fc" fill-rule="evenodd" opacity="1" stroke="none"/>
</g>
</g>
</svg>
