<?xml version="1.0" encoding="UTF-8" standalone="no"?>
<!DOCTYPE svg PUBLIC "-//W3C//DTD SVG 1.1//EN" "http://www.w3.org/Graphics/SVG/1.1/DTD/svg11.dtd">

<!-- Created with Vectornator (http://vectornator.io/) -->
<svg height="100%" stroke-miterlimit="10" style="fill-rule:nonzero;clip-rule:evenodd;stroke-linecap:round;stroke-linejoin:round;" version="1.1" viewBox="0 0 375 225" width="100%" xml:space="preserve" xmlns="http://www.w3.org/2000/svg" xmlns:vectornator="http://vectornator.io" xmlns:xlink="http://www.w3.org/1999/xlink">
<metadata>
<vectornator:setting key="IsTimeLapseWatermarkDisabled" value="false"/>
<vectornator:setting key="UndoHistoryDisabled" value="true"/>
<vectornator:setting key="VNDimensionsVisible" value="true"/>
<vectornator:setting key="VNSnapToGuides" value="true"/>
<vectornator:setting key="WDCMYKEnabledKey" value="false"/>
<vectornator:setting key="WDDisplayWhiteBackground" value="false"/>
<vectornator:setting key="WDDynamicGuides" value="false"/>
<vectornator:setting key="WDGuidesVisible" value="true"/>
<vectornator:setting key="WDIsolateActiveLayer" value="false"/>
<vectornator:setting key="WDOutlineMode" value="false"/>
<vectornator:setting key="WDRulersVisible" value="true"/>
<vectornator:setting key="WDSnapToEdges" value="false"/>
<vectornator:setting key="WDSnapToGrid" value="false"/>
<vectornator:setting key="WDSnapToPoints" value="false"/>
<vectornator:setting key="WDUnits" value="Points"/>
</metadata>
<defs/>
<clipPath id="ArtboardFrame">
<rect height="225" width="375" x="0" y="0"/>
</clipPath>
<g clip-path="url(#ArtboardFrame)" id="Untitled" vectornator:layerName="Untitled">
<g opacity="1">
<path d="M480.532 355.162C481.831 356.46 483.938 356.461 485.217 355.144C516.406 323.03 537.155 282.21 544.692 238.045C552.416 192.787 545.885 146.249 526 104.86C506.116 63.4711 473.861 29.2738 433.689 6.99204C393.518-15.2896 347.414-24.556 301.746-19.527C256.077-14.498 213.099 4.57811 178.747 35.0663C144.395 65.5545 120.366 105.95 109.978 150.673C99.5908 195.395 103.357 242.237 120.758 284.729C137.739 326.194 166.886 361.519 204.325 386.077C205.86 387.083 207.915 386.623 208.9 385.074L208.9 385.074C209.886 383.524 209.425 381.469 207.889 380.461C171.615 356.643 143.375 322.4 126.917 282.21C110.038 240.994 106.384 195.557 116.46 152.176C126.536 108.795 149.845 69.6114 183.166 40.0378C216.487 10.4643 258.176-8.03961 302.475-12.9177C346.773-17.7958 391.494-8.80745 430.46 12.8058C469.426 34.4191 500.714 67.5905 520.002 107.738C539.289 147.885 545.625 193.027 538.133 236.927C530.827 279.733 510.727 319.299 480.514 350.439C479.234 351.758 479.232 353.863 480.532 355.162L480.532 355.162Z" fill="#ffffff" fill-rule="evenodd" opacity="1" stroke="none"/>
<path d="M486.307 348.491C487.497 349.684 489.432 349.684 490.604 348.474C524.929 313.007 545.219 266.184 547.611 216.752C550.052 166.301 533.674 116.746 501.668 77.7398C469.662 38.7341 424.32 13.0719 374.476 5.75237C324.632-1.56708 273.855 9.9805 232.038 38.1455C190.22 66.3105 160.358 109.076 148.267 158.11C136.177 207.144 142.724 258.935 166.635 303.393C190.545 347.851 230.106 381.793 277.609 398.605C324.156 415.078 375.062 413.949 420.79 395.497C422.349 394.868 423.078 393.082 422.428 391.531L422.428 391.531C421.777 389.976 419.987 389.248 418.424 389.878C374.092 407.739 324.752 408.821 279.634 392.854C233.555 376.546 195.182 343.623 171.989 300.498C148.796 257.374 142.444 207.137 154.172 159.574C165.9 112.011 194.866 70.5282 235.429 43.2082C275.992 15.8881 325.246 4.68696 373.595 11.7869C421.943 18.8867 465.925 43.7791 496.971 81.6146C528.016 119.451 543.903 167.519 541.535 216.457C539.216 264.38 519.555 309.776 486.291 344.172C485.124 345.379 485.122 347.302 486.307 348.491L486.307 348.491Z" fill="#ffffff" fill-rule="evenodd" opacity="1" stroke="none"/>
<path d="M490.137 338.979C491.249 340.087 493.05 340.088 494.145 338.963C521.404 310.958 539.351 275.227 545.496 236.637C551.79 197.113 545.381 156.617 527.188 120.946C508.994 85.274 479.949 56.2565 444.209 38.0469C408.47 19.8373 367.869 13.3691 328.218 19.5684C288.567 25.7676 251.9 44.3164 223.465 72.5595C195.031 100.803 176.287 137.292 169.916 176.804C163.546 216.316 169.876 256.824 188 292.531C205.696 327.394 233.75 355.933 268.299 374.276C269.685 375.012 271.399 374.459 272.117 373.064L272.117 373.064C272.838 371.665 272.284 369.947 270.893 369.208C237.421 351.414 210.24 323.75 193.09 289.962C175.51 255.327 169.37 216.033 175.549 177.707C181.728 139.38 199.91 103.986 227.492 76.5897C255.073 49.194 290.64 31.2016 329.102 25.1883C367.563 19.1751 406.946 25.4492 441.613 43.1125C476.281 60.7759 504.455 88.9228 522.102 123.524C539.75 158.126 545.966 197.407 539.861 235.745C533.906 273.144 516.524 307.774 490.122 334.929C489.023 336.059 489.021 337.866 490.137 338.979L490.137 338.979Z" fill="#ffffff" fill-rule="evenodd" opacity="1" stroke="none"/>
<path d="M520.273 305.454C521.579 306.007 523.087 305.395 523.619 304.08C536.955 271.119 539.712 234.795 531.47 200.161C523.03 164.692 503.496 132.847 475.713 109.264C447.931 85.6802 413.352 71.5912 377.012 69.0484C341.527 66.5653 306.173 75.2187 275.86 93.7695C274.651 94.5097 274.294 96.0977 275.051 97.2962L275.051 97.2962C275.808 98.4952 277.394 98.8502 278.604 98.1104C307.992 80.1442 342.259 71.7649 376.654 74.1716C411.904 76.6382 445.446 90.3045 472.394 113.18C499.343 136.056 518.291 166.946 526.478 201.35C534.467 234.922 531.803 270.13 518.891 302.084C518.36 303.398 518.968 304.903 520.273 305.454L520.273 305.454Z" fill="#ffffff" fill-rule="evenodd" opacity="1" stroke="none"/>
<path d="M254.908 112.256C253.981 111.183 252.358 111.064 251.3 112.008C239.322 122.689 228.906 135.004 220.357 148.59C219.602 149.79 219.987 151.37 221.196 152.107L221.196 152.107C222.407 152.845 223.985 152.46 224.741 151.259C233.013 138.129 243.083 126.224 254.657 115.893C255.715 114.948 255.835 113.329 254.908 112.256L254.908 112.256Z" fill="#ffffff" fill-rule="evenodd" opacity="1" stroke="none"/>
<path d="M481.478 355.819C482.782 357.322 485.059 357.484 486.54 356.157C515.014 330.644 537 298.678 550.645 262.911C564.718 226.022 569.485 186.228 564.523 147.054C559.56 107.88 545.022 70.5356 522.196 38.3288C499.37 6.12194 468.96-19.9533 433.66-37.5874C398.36-55.2214 359.261-63.8699 319.824-62.7667C280.387-61.6636 241.831-50.8428 207.57-31.263C173.31-11.6832 144.402 16.0514 123.409 49.484C103.054 81.9001 90.748 118.703 87.4948 156.817C87.3258 158.797 88.8232 160.519 90.8061 160.658L90.8061 160.658C92.7883 160.798 94.5049 159.304 94.6748 157.324C97.8441 120.392 109.777 84.7308 129.503 53.3171C149.866 20.8875 177.906-6.01502 211.139-25.0074C244.372-43.9999 281.771-54.496 320.025-55.5661C358.278-56.6361 396.205-48.2471 430.446-31.1421C464.687-14.0371 494.184 11.256 516.326 42.4966C538.467 73.7372 552.569 109.962 557.383 147.96C562.196 185.959 557.573 224.559 543.921 260.342C530.698 295.003 509.399 325.985 481.816 350.722C480.337 352.048 480.176 354.318 481.478 355.819L481.478 355.819Z" fill="#ffffff" fill-rule="evenodd" opacity="1" stroke="none"/>
<path d="M488.224 349.736C489.454 350.749 491.275 350.572 492.268 349.325C508.691 328.712 520.711 304.931 527.573 279.455C534.684 253.05 536.089 225.43 531.694 198.437C527.299 171.445 517.204 145.701 502.084 122.922C486.963 100.143 467.164 80.8519 444.006 66.3363C420.849 51.8207 394.865 42.4136 367.788 38.7425C340.712 35.0714 313.164 37.2205 286.983 45.0467C260.802 52.8728 236.588 66.1961 215.958 84.128C196.053 101.43 179.924 122.637 168.565 146.426C167.879 147.864 168.514 149.577 169.96 150.242L169.96 150.242C171.408 150.908 173.119 150.272 173.807 148.834C184.823 125.791 200.453 105.248 219.739 88.4856C239.75 71.0917 263.237 58.1682 288.633 50.5768C314.029 42.9854 340.75 40.9007 367.014 44.4617C393.279 48.0227 418.483 57.1475 440.946 71.2277C463.408 85.3079 482.614 104.02 497.281 126.116C511.948 148.212 521.74 173.183 526.003 199.366C530.266 225.548 528.903 252.34 522.005 277.953C515.357 302.638 503.715 325.682 487.812 345.662C486.819 346.908 486.994 348.724 488.224 349.736L488.224 349.736Z" fill="#ffffff" fill-rule="evenodd" opacity="1" stroke="none"/>
</g>
<g opacity="1">
<path d="M275.374 144.432C274.175 143.645 272.563 143.977 271.792 145.186C252.97 174.693 243.522 209.211 244.723 244.2C245.955 280.054 258.309 314.633 280.079 343.161C301.849 371.688 331.961 392.756 366.255 403.455C400.549 414.153 437.332 413.954 471.523 402.884C505.714 391.814 535.626 370.421 557.127 341.659C578.628 312.896 590.656 278.185 591.55 242.32C592.443 206.454 582.159 171.205 562.117 141.441C542.558 112.395 514.649 89.9715 482.087 77.1C480.754 76.5729 479.254 77.2493 478.745 78.5896L478.745 78.5896C478.234 79.933 478.912 81.434 480.248 81.963C511.799 94.4534 538.841 116.191 557.797 144.342C577.238 173.213 587.214 207.405 586.346 242.194C585.479 276.984 573.812 310.654 552.957 338.553C532.101 366.452 503.086 387.204 469.921 397.942C436.755 408.679 401.075 408.873 367.811 398.495C334.546 388.118 305.337 367.682 284.22 340.01C263.103 312.338 251.12 278.796 249.925 244.018C248.76 210.108 257.909 176.654 276.134 148.048C276.907 146.835 276.576 145.221 275.374 144.432L275.374 144.432Z" fill="#f7f9fc" fill-rule="evenodd" opacity="1" stroke="none"/>
<path d="M272.003 150.451C270.904 149.726 269.424 150.031 268.718 151.142C248.024 183.711 239.875 222.75 245.851 260.955C251.949 299.948 272.323 335.279 303.003 360.066C333.683 384.853 372.472 397.321 411.813 395.04C451.154 392.759 488.229 375.894 515.816 347.729C543.402 319.564 559.525 282.117 561.042 242.683C562.56 203.249 549.363 164.653 524.024 134.413C498.684 104.174 463.017 84.4564 423.97 79.1029C385.709 73.8573 346.889 82.7707 314.773 104.121C313.678 104.849 313.402 106.333 314.145 107.417L314.145 107.417C314.889 108.503 316.373 108.778 317.47 108.049C348.61 87.3698 386.24 78.7392 423.327 83.8239C461.203 89.0168 495.8 108.142 520.38 137.475C544.959 166.807 557.759 204.246 556.288 242.497C554.816 280.748 539.177 317.071 512.418 344.391C485.659 371.711 449.696 388.071 411.535 390.283C373.374 392.495 335.749 380.402 305.99 356.358C276.23 332.315 256.467 298.043 250.552 260.221C244.759 223.183 252.65 185.337 272.698 153.756C273.402 152.648 273.1 151.173 272.003 150.451L272.003 150.451Z" fill="#f7f9fc" fill-rule="evenodd" opacity="1" stroke="none"/>
<path d="M270.572 158.335C269.546 157.663 268.168 157.947 267.507 158.98C251.047 184.721 242.942 214.902 244.33 245.404C245.751 276.644 257.057 306.62 276.629 331.039C296.2 355.459 323.035 373.071 353.29 381.354C383.546 389.637 415.671 388.167 445.068 377.153C474.464 366.14 499.625 346.148 516.947 320.039C534.269 293.93 542.865 263.044 541.505 231.801C540.144 200.559 528.897 170.561 509.372 146.104C490.308 122.223 464.307 104.819 434.942 96.2468C433.765 95.9034 432.542 96.5962 432.212 97.7766L432.212 97.7766C431.881 98.9624 432.577 100.19 433.758 100.536C462.211 108.859 487.403 125.731 505.878 148.875C524.817 172.598 535.727 201.696 537.047 232.001C538.367 262.307 530.029 292.266 513.226 317.592C496.423 342.917 472.018 362.309 443.503 372.992C414.989 383.676 383.827 385.102 354.479 377.067C325.131 369.033 299.102 351.949 280.117 328.262C261.132 304.575 250.166 275.499 248.787 245.196C247.443 215.637 255.288 186.389 271.224 161.435C271.888 160.396 271.604 159.011 270.572 158.335L270.572 158.335Z" fill="#f7f9fc" fill-rule="evenodd" opacity="1" stroke="none"/>
<path d="M252.781 188.755C251.694 188.539 250.637 189.245 250.437 190.335C245.426 217.667 249.052 245.899 260.836 271.099C272.904 296.906 292.899 318.186 317.907 331.839C342.916 345.493 371.631 350.806 399.872 347.006C427.449 343.294 453.167 331.082 473.459 312.093C474.268 311.336 474.29 310.064 473.52 309.266L473.52 309.266C472.751 308.469 471.482 308.447 470.672 309.204C450.996 327.6 426.067 339.431 399.337 343.028C371.944 346.715 344.089 341.561 319.831 328.317C295.573 315.074 276.178 294.432 264.472 269.4C253.05 244.973 249.53 217.611 254.374 191.118C254.573 190.028 253.868 188.971 252.781 188.755L252.781 188.755Z" fill="#f7f9fc" fill-rule="evenodd" opacity="1" stroke="none"/>
<path d="M260.61 172.966C259.6 172.765 258.616 173.421 258.43 174.434C255.193 192.096 255.817 210.257 260.27 227.666C264.878 245.679 273.465 262.429 285.402 276.684C297.339 290.939 312.321 302.337 329.246 310.039C345.605 317.483 363.377 321.291 381.336 321.21C382.366 321.206 383.185 320.353 383.165 319.323L383.165 319.323C383.145 318.293 382.293 317.475 381.263 317.48C363.862 317.55 346.643 313.856 330.793 306.643C314.375 299.172 299.843 288.116 288.264 274.289C276.685 260.461 268.355 244.214 263.886 226.742C259.571 209.873 258.962 192.277 262.091 175.162C262.276 174.149 261.621 173.167 260.61 172.966L260.61 172.966Z" fill="#f7f9fc" fill-rule="evenodd" opacity="1" stroke="none"/>
<path d="M274.545 144.079C273.31 143.136 271.542 143.372 270.617 144.621C252.834 168.647 241.039 196.585 236.235 226.113C231.28 256.567 233.914 287.772 243.903 316.964C253.892 346.156 270.928 372.434 293.502 393.47C316.076 414.506 343.491 429.651 373.318 437.563C403.146 445.476 434.466 445.911 464.503 438.831C494.541 431.751 522.369 417.374 545.523 396.973C568.676 376.573 586.441 350.778 597.243 321.875C607.716 293.852 611.331 263.744 607.803 234.065C607.62 232.521 606.201 231.44 604.661 231.647L604.661 231.647C603.12 231.853 602.04 233.27 602.223 234.814C605.628 263.575 602.119 292.749 591.969 319.906C581.491 347.942 564.26 372.962 541.801 392.75C519.341 412.539 492.348 426.485 463.212 433.352C434.075 440.22 403.695 439.798 374.763 432.123C345.83 424.448 319.237 409.758 297.34 389.353C275.444 368.948 258.919 343.458 249.23 315.142C239.541 286.826 236.986 256.557 241.792 227.016C246.447 198.402 257.87 171.328 275.092 148.038C276.016 146.788 275.781 145.022 274.545 144.079L274.545 144.079Z" fill="#f7f9fc" fill-rule="evenodd" opacity="1" stroke="none"/>
<path d="M270.339 149.801C269.237 149.221 267.872 149.643 267.309 150.754C257.983 169.125 252.53 189.224 251.297 209.805C250.02 231.136 253.306 252.493 260.936 272.453C268.567 292.414 280.367 310.517 295.548 325.557C310.73 340.598 328.945 352.228 348.978 359.674C369.011 367.12 390.402 370.21 411.725 368.738C433.048 367.266 453.812 361.265 472.633 351.136C491.454 341.008 507.899 326.983 520.871 309.999C533.387 293.613 542.393 274.834 547.337 254.835C547.636 253.626 546.878 252.414 545.665 252.134L545.665 252.134C544.451 251.853 543.242 252.61 542.943 253.818C538.143 273.193 529.413 291.386 517.286 307.263C504.703 323.737 488.752 337.341 470.495 347.165C452.239 356.99 432.098 362.811 411.415 364.239C390.732 365.667 369.982 362.67 350.55 355.447C331.118 348.225 313.449 336.943 298.723 322.354C283.997 307.765 272.551 290.204 265.15 270.843C257.748 251.482 254.561 230.765 255.8 210.074C256.994 190.134 262.273 170.659 271.3 152.855C271.863 151.744 271.442 150.381 270.339 149.801L270.339 149.801Z" fill="#f7f9fc" fill-rule="evenodd" opacity="1" stroke="none"/>
</g>
</g>
</svg>
