<svg id="Layer_1" data-name="Layer 1" xmlns="http://www.w3.org/2000/svg" viewBox="0 0 25 25"><path d="M2.75,2.75h8.67v8.67H2.75ZM4.48,4.48v5.2h5.2V4.48Z" fill="#fff"/><path d="M6,6H8.17V8.17H6Z" fill="#fff" fill-rule="evenodd"/><path d="M13.58,2.75h8.67v8.67H13.58Zm1.74,1.73v5.2h5.2V4.48Z" fill="#fff"/><path d="M16.83,6H19V8.17H16.83Z" fill="#fff" fill-rule="evenodd"/><path d="M2.75,13.58h8.67v8.67H2.75Zm1.73,1.74v5.2h5.2v-5.2Z" fill="#fff"/><path d="M6,16.83H8.17V19H6Z" fill="#fff" fill-rule="evenodd"/><path d="M22.25,18.78H18.78v3.47h-5.2V13.58h0v5.2h1.74v1.74h1.73v-5.2H15.32V13.58h1.73v1.74h1.73v1.73h1.74V13.58h1.73Zm0,1.74v1.73H20.52V20.52Z" fill="#fff"/></svg>