<?xml version="1.0" encoding="UTF-8" standalone="no"?>
<!DOCTYPE svg PUBLIC "-//W3C//DTD SVG 1.1//EN" "http://www.w3.org/Graphics/SVG/1.1/DTD/svg11.dtd">

<!-- Created with Vectornator (http://vectornator.io/) -->
<svg height="100%" stroke-miterlimit="10" style="fill-rule:nonzero;clip-rule:evenodd;stroke-linecap:round;stroke-linejoin:round;" version="1.1" viewBox="0 0 43 63" width="100%" xml:space="preserve" xmlns="http://www.w3.org/2000/svg" xmlns:vectornator="http://vectornator.io" xmlns:xlink="http://www.w3.org/1999/xlink">
<metadata>
<vectornator:setting key="IsTimeLapseWatermarkDisabled" value="false"/>
<vectornator:setting key="UndoHistoryDisabled" value="true"/>
<vectornator:setting key="VNDimensionsVisible" value="true"/>
<vectornator:setting key="VNSnapToGuides" value="true"/>
<vectornator:setting key="WDCMYKEnabledKey" value="false"/>
<vectornator:setting key="WDDisplayWhiteBackground" value="false"/>
<vectornator:setting key="WDDynamicGuides" value="false"/>
<vectornator:setting key="WDGuidesVisible" value="true"/>
<vectornator:setting key="WDIsolateActiveLayer" value="false"/>
<vectornator:setting key="WDOutlineMode" value="false"/>
<vectornator:setting key="WDRulersVisible" value="true"/>
<vectornator:setting key="WDSnapToEdges" value="false"/>
<vectornator:setting key="WDSnapToGrid" value="false"/>
<vectornator:setting key="WDSnapToPoints" value="false"/>
<vectornator:setting key="WDUnits" value="Points"/>
</metadata>
<defs/>
<clipPath id="ArtboardFrame">
<rect height="63" width="43" x="0" y="0"/>
</clipPath>
<g clip-path="url(#ArtboardFrame)" id="Untitled" vectornator:layerName="Untitled">
<path d="M40.3794 26.9945C40.3062 26.9167 40.2167 26.8545 40.1171 26.812C40.0176 26.7696 39.91 26.7476 39.8013 26.7476L6.39277 26.7476C6.28384 26.7476 6.17615 26.7696 6.07657 26.812C5.97699 26.8545 5.88785 26.9167 5.81461 26.9946C5.74136 27.0725 5.68589 27.1641 5.65145 27.264C5.61701 27.3639 5.60454 27.4696 5.61482 27.5743L9.03749 62.3164C9.05588 62.5036 9.1458 62.6773 9.28963 62.8036C9.43347 62.9302 9.6211 63.0001 9.81543 63.0001L36.3788 63.0001C36.5731 63.0001 36.7606 62.9302 36.9044 62.8036C37.0482 62.6773 37.1381 62.5036 37.1565 62.3164L40.5794 27.5743C40.5895 27.4696 40.5769 27.3639 40.5424 27.264C40.508 27.1641 40.4527 27.0724 40.3794 26.9945Z" fill="#ffe6e6" fill-rule="evenodd" opacity="1" stroke="none"/>
<path d="M23.0966 57.713C22.8894 57.713 22.6907 57.6334 22.5442 57.4918C22.3977 57.3502 22.3154 57.1581 22.3154 56.9577L22.3154 32.7894C22.3154 32.589 22.3977 32.3969 22.5442 32.2553C22.6907 32.1137 22.8894 32.0342 23.0966 32.0342C23.3039 32.0342 23.5026 32.1137 23.6491 32.2553C23.7956 32.3969 23.8779 32.589 23.8779 32.7894L23.8779 56.9577C23.8779 57.1581 23.7956 57.3502 23.6491 57.4918C23.5026 57.6334 23.3039 57.713 23.0966 57.713Z" fill="#fc5151" fill-rule="evenodd" opacity="1" stroke="none"/>
<path d="M30.1283 57.7133C30.1119 57.7133 30.0954 57.7125 30.0787 57.7118C29.9764 57.7058 29.8762 57.6801 29.7841 57.6366C29.692 57.5931 29.6095 57.5324 29.5416 57.4579C29.4736 57.3837 29.4216 57.297 29.3884 57.2032C29.3552 57.1093 29.3413 57.0102 29.3477 56.9112L30.9103 32.7429C30.9259 32.544 31.0211 32.3587 31.1758 32.2267C31.3306 32.0948 31.5325 32.0265 31.7386 32.0363C31.841 32.0424 31.941 32.0678 32.0333 32.1115C32.1254 32.155 32.2078 32.2159 32.2757 32.2902C32.3437 32.3646 32.3957 32.4512 32.4289 32.5451C32.4621 32.6389 32.476 32.7382 32.4694 32.8372L30.9069 57.0057C30.8944 57.1972 30.8068 57.3769 30.6622 57.5083C30.5176 57.6398 30.3267 57.713 30.1283 57.7133Z" fill="#fc5151" fill-rule="evenodd" opacity="1" stroke="none"/>
<path d="M16.0638 57.7136C15.8651 57.7134 15.6742 57.64 15.5294 57.5085C15.3846 57.377 15.2973 57.1971 15.2849 57.0055L13.7223 32.837C13.7114 32.6383 13.782 32.4434 13.919 32.2947C14.0559 32.1461 14.2481 32.0557 14.4536 32.0432C14.6592 32.0307 14.8615 32.0973 15.0165 32.2282C15.1716 32.3593 15.267 32.5441 15.2818 32.7427L16.8442 56.911C16.8506 57.01 16.8369 57.1092 16.8037 57.203C16.7705 57.2969 16.7184 57.3835 16.6505 57.4578C16.5825 57.532 16.5003 57.5929 16.4082 57.6364C16.3159 57.68 16.2158 57.7056 16.1135 57.7116C16.0966 57.7128 16.0801 57.7136 16.0638 57.7136Z" fill="#fc5151" fill-rule="evenodd" opacity="1" stroke="none"/>
<path d="M27.9424 2.77664L11.3946 5.62685C10.7966 5.73052 10.2844 6.08313 9.97042 6.6073C9.65642 7.13147 9.56632 7.78411 9.71999 8.42244L10.8837 13.2365C10.9351 13.4493 11.0638 13.6397 11.2412 13.7658C11.4186 13.892 11.6303 13.9435 11.8298 13.9092L31.386 10.5408C31.5855 10.5064 31.7564 10.389 31.8611 10.2142C31.9657 10.0395 31.9958 9.82181 31.9443 9.60896L30.7807 4.79493C30.6258 4.15681 30.24 3.58613 29.7078 3.20771C29.1756 2.82928 28.5407 2.67425 27.9424 2.77664Z" fill="#e34646" fill-rule="evenodd" opacity="1" stroke="none"/>
<path d="M39.1351 6.75304L2.72888 13.2647C1.89105 13.4145 1.38449 14.2742 1.5974 15.1848L2.7538 20.1311C2.96671 21.0417 3.81842 21.6584 4.65625 21.5086L41.0625 14.9969C41.9003 14.8471 42.4069 13.9874 42.194 13.0768L41.0375 8.13052C40.8246 7.21987 39.9729 6.60318 39.1351 6.75304Z" fill="#fc5151" fill-rule="evenodd" opacity="1" stroke="none"/>
</g>
</svg>
