<svg id="Layer_1" data-name="Layer 1" xmlns="http://www.w3.org/2000/svg" viewBox="0 0 25 25"><path d="M19.79,12.5V8H5.21a2,2,0,0,1-1.47-.66,2.3,2.3,0,0,1-.62-1.59A2.18,2.18,0,0,1,5.21,3.5h12.5V8" fill="none" stroke="#bcbcbc" stroke-linecap="round" stroke-linejoin="round" stroke-width="2"/><path d="M3.12,5.75v13.5A2.18,2.18,0,0,0,5.21,21.5H19.79V17" fill="none" stroke="#bcbcbc" stroke-linecap="round" stroke-linejoin="round" stroke-width="2"/><path d="M17.71,12.5a2,2,0,0,0-1.47.66,2.3,2.3,0,0,0-.62,1.59A2.18,2.18,0,0,0,17.71,17h4.17V12.5Z" fill="none" stroke="#bcbcbc" stroke-linecap="round" stroke-linejoin="round" stroke-width="2"/></svg>