<?xml version="1.0" encoding="UTF-8" standalone="no"?>
<!DOCTYPE svg PUBLIC "-//W3C//DTD SVG 1.1//EN" "http://www.w3.org/Graphics/SVG/1.1/DTD/svg11.dtd">

<!-- Created with Vectornator (http://vectornator.io/) -->
<svg height="100%" stroke-miterlimit="10" style="fill-rule:nonzero;clip-rule:evenodd;stroke-linecap:round;stroke-linejoin:round;" version="1.1" viewBox="0 0 375 316" width="100%" xml:space="preserve" xmlns="http://www.w3.org/2000/svg" xmlns:vectornator="http://vectornator.io" xmlns:xlink="http://www.w3.org/1999/xlink">
<metadata>
<vectornator:setting key="IsTimeLapseWatermarkDisabled" value="false"/>
<vectornator:setting key="UndoHistoryDisabled" value="true"/>
<vectornator:setting key="VNDimensionsVisible" value="true"/>
<vectornator:setting key="VNSnapToGuides" value="true"/>
<vectornator:setting key="WDCMYKEnabledKey" value="false"/>
<vectornator:setting key="WDDisplayWhiteBackground" value="false"/>
<vectornator:setting key="WDDynamicGuides" value="false"/>
<vectornator:setting key="WDGuidesVisible" value="true"/>
<vectornator:setting key="WDIsolateActiveLayer" value="false"/>
<vectornator:setting key="WDOutlineMode" value="false"/>
<vectornator:setting key="WDRulersVisible" value="true"/>
<vectornator:setting key="WDSnapToEdges" value="false"/>
<vectornator:setting key="WDSnapToGrid" value="false"/>
<vectornator:setting key="WDSnapToPoints" value="false"/>
<vectornator:setting key="WDUnits" value="Points"/>
</metadata>
<defs/>
<clipPath id="ArtboardFrame">
<rect height="316" width="375" x="0" y="0"/>
</clipPath>
<g clip-path="url(#ArtboardFrame)" id="Untitled" vectornator:layerName="Untitled">
<g opacity="1">
<path d="M288.555 417.7C290.015 419.158 292.382 419.159 293.819 417.68C328.866 381.593 352.182 335.724 360.652 286.096C369.331 235.24 361.991 182.946 339.648 136.437C317.304 89.9287 281.059 51.5014 235.918 26.4636C190.778 1.42574 138.971-8.98684 87.6541-3.33579C36.3369 2.31525-11.9579 23.751-50.5587 58.0104C-89.1594 92.2698-116.161 137.662-127.834 187.916C-139.506 238.171-135.274 290.807-115.721 338.554C-96.6394 385.149-63.8873 424.843-21.8173 452.438C-20.0925 453.569-17.7824 453.052-16.6759 451.312L-16.6759 451.312C-15.5683 449.569-16.086 447.261-17.8119 446.127C-58.5727 419.363-90.3064 380.885-108.8 335.724C-127.767 289.409-131.873 238.352-120.55 189.606C-109.228 140.859-83.036 96.8285-45.5932 63.5969C-8.15049 30.3653 38.6954 9.57259 88.4731 4.09108C138.251-1.39044 188.504 8.70977 232.29 32.9965C276.076 57.2831 311.234 94.5577 332.907 139.671C354.58 184.784 361.699 235.509 353.281 284.84C345.072 332.941 322.485 377.4 288.535 412.392C287.097 413.874 287.095 416.24 288.555 417.7L288.555 417.7Z" fill="#ffffff" fill-rule="evenodd" opacity="1" stroke="none"/>
<path d="M295.045 410.203C296.383 411.543 298.557 411.544 299.874 410.184C338.444 370.33 361.244 317.716 363.932 262.169C366.674 205.478 348.271 149.793 312.306 105.962C276.341 62.132 225.391 33.2955 169.381 25.0707C113.372 16.8458 56.314 29.8218 9.3242 61.4706C-37.6656 93.1194-71.2222 141.174-84.8081 196.273C-98.3941 251.373-91.0364 309.57-64.1684 359.527C-37.3004 409.485 7.15344 447.624 60.533 466.516C112.837 485.027 170.04 483.758 221.424 463.024C223.176 462.317 223.995 460.31 223.265 458.567L223.265 458.567C222.533 456.82 220.522 456.002 218.765 456.71C168.95 476.78 113.507 477.996 62.808 460.053C11.0298 441.728-32.0905 404.733-58.1524 356.274C-84.2143 307.816-91.3513 251.364-78.1729 197.918C-64.9945 144.472-32.4447 97.8588 13.1355 67.1595C58.7156 36.4601 114.061 23.8735 168.391 31.8515C222.72 39.8296 272.142 67.801 307.028 110.317C341.914 152.832 359.765 206.847 357.105 261.837C354.499 315.689 332.405 366.7 295.028 405.35C293.716 406.706 293.713 408.867 295.045 410.203L295.045 410.203Z" fill="#ffffff" fill-rule="evenodd" opacity="1" stroke="none"/>
<path d="M299.349 399.515C300.598 400.76 302.622 400.761 303.853 399.497C334.484 368.027 354.65 327.877 361.555 284.514C368.627 240.101 361.426 194.596 340.982 154.512C320.539 114.428 287.901 81.8217 247.74 61.3597C207.58 40.8976 161.957 33.6294 117.401 40.5955C72.8461 47.5615 31.6434 68.4047-0.308421 100.141C-32.2603 131.878-53.323 172.88-60.4814 217.28C-67.6398 261.679-60.5269 307.198-40.1609 347.321C-20.2758 386.496 11.2483 418.566 50.0709 439.177C51.6284 440.004 53.554 439.384 54.3612 437.816L54.3612 437.816C55.1711 436.243 54.5483 434.314 52.9862 433.483C15.3731 413.488-15.1691 382.402-34.4409 344.434C-54.196 305.515-61.0955 261.361-54.1518 218.294C-47.2082 175.227-26.7773 135.454 4.21595 104.67C35.2092 73.8856 75.1758 53.6677 118.394 46.9106C161.613 40.1535 205.868 47.2037 244.823 67.0519C283.779 86.9001 315.438 118.529 335.268 157.41C355.099 196.291 362.084 240.431 355.223 283.512C348.531 325.536 328.999 364.45 299.332 394.963C298.097 396.233 298.095 398.264 299.349 399.515L299.349 399.515Z" fill="#ffffff" fill-rule="evenodd" opacity="1" stroke="none"/>
<path d="M333.212 361.844C334.68 362.464 336.375 361.777 336.973 360.299C351.958 323.261 355.056 282.444 345.794 243.525C336.31 203.67 314.36 167.885 283.141 141.385C251.922 114.885 213.066 99.0534 172.231 96.196C132.356 93.4058 92.6294 103.13 58.5676 123.975C57.2086 124.807 56.8075 126.591 57.6582 127.938L57.6582 127.938C58.5092 129.285 60.2905 129.684 61.6503 128.853C94.6735 108.664 133.18 99.2486 171.829 101.953C211.439 104.725 249.129 120.081 279.412 145.787C309.694 171.492 330.986 206.202 340.185 244.863C349.162 282.587 346.168 322.149 331.659 358.056C331.063 359.533 331.746 361.224 333.212 361.844L333.212 361.844Z" fill="#ffffff" fill-rule="evenodd" opacity="1" stroke="none"/>
<path d="M35.0237 144.748C33.9822 143.542 32.1586 143.408 30.9689 144.469C17.5102 156.472 5.80532 170.309-3.80142 185.576C-4.64977 186.924-4.21748 188.699-2.85824 189.528L-2.85824 189.528C-1.49782 190.357 0.275664 189.924 1.1254 188.575C10.4199 173.821 21.7356 160.443 34.7417 148.834C35.9302 147.773 36.0647 145.953 35.0237 144.748L35.0237 144.748Z" fill="#ffffff" fill-rule="evenodd" opacity="1" stroke="none"/>
<path d="M317.613 381.806C318.977 382.383 320.553 381.744 321.109 380.37C330.792 356.437 335.187 330.677 333.978 304.863C332.727 278.154 325.509 252.066 312.855 228.518C300.2 204.97 282.432 184.561 260.858 168.793C240.006 153.554 216.11 143.024 190.822 137.917C189.37 137.623 187.968 138.587 187.697 140.044L187.697 140.044C187.426 141.5 188.387 142.898 189.837 143.192C214.339 148.151 237.491 158.359 257.696 173.127C278.624 188.422 295.859 208.218 308.133 231.06C320.408 253.901 327.409 279.207 328.623 305.114C329.795 330.128 325.542 355.089 316.169 378.285C315.614 379.658 316.25 381.23 317.613 381.806L317.613 381.806Z" fill="#ffffff" fill-rule="evenodd" opacity="1" stroke="none"/>
<path d="M289.619 418.438C291.084 420.126 293.643 420.309 295.307 418.818C327.303 390.149 352.008 354.229 367.341 314.038C383.155 272.585 388.512 227.869 382.936 183.85C377.359 139.831 361.023 97.8672 335.373 61.6766C309.723 25.486 275.552-3.81469 235.886-23.6299C196.22-43.4452 152.284-53.1634 107.969-51.9238C63.6542-50.6842 20.3287-38.525-18.1696-16.5233C-56.668 5.47844-89.1509 36.6436-112.741 74.2116C-135.614 110.637-149.442 151.992-153.098 194.82C-153.288 197.046-151.605 198.98-149.377 199.137L-149.377 199.137C-147.15 199.294-145.221 197.615-145.03 195.39C-141.468 153.89-128.06 113.818-105.894 78.5189C-83.0114 42.0779-51.5029 11.8477-14.1595-9.49396C23.1839-30.8356 65.2095-42.6301 108.195-43.8325C151.18-45.0349 193.798-35.6082 232.275-16.3874C270.751 2.83338 303.897 31.255 328.777 66.3599C353.657 101.465 369.504 142.169 374.913 184.868C380.321 227.567 375.126 270.942 359.786 311.15C344.927 350.1 320.993 384.914 289.999 412.71C288.337 414.2 288.155 416.751 289.619 418.438L289.619 418.438Z" fill="#ffffff" fill-rule="evenodd" opacity="1" stroke="none"/>
<path d="M297.199 411.603C298.581 412.741 300.627 412.542 301.743 411.141C320.197 387.978 333.705 361.256 341.415 332.629C349.406 302.957 350.985 271.92 346.046 241.589C341.107 211.258 329.764 182.33 312.773 156.733C295.782 131.136 273.534 109.46 247.512 93.1485C221.49 76.8374 192.292 66.2668 161.866 62.1416C131.44 58.0163 100.485 60.4313 71.0657 69.2255C41.646 78.0197 14.4377 92.991-8.74475 113.141C-31.1119 132.582-49.2354 156.413-61.9997 183.145C-62.7709 184.76-62.0572 186.685-60.4321 187.432L-60.4321 187.432C-58.8056 188.181-56.8825 187.466-56.1098 185.85C-43.7308 159.957-26.1669 136.873-4.49621 118.038C17.9908 98.4922 44.3828 83.97 72.92 75.4397C101.457 66.9093 131.483 64.5667 160.997 68.5682C190.51 72.5697 218.831 82.8232 244.072 98.645C269.314 114.467 290.895 135.493 307.376 160.322C323.857 185.151 334.86 213.211 339.651 242.633C344.442 272.054 342.91 302.159 335.159 330.941C327.688 358.679 314.606 384.573 296.736 407.024C295.621 408.425 295.817 410.466 297.199 411.603L297.199 411.603Z" fill="#ffffff" fill-rule="evenodd" opacity="1" stroke="none"/>
</g>
</g>
</svg>
